<svg version="1.1" viewBox="0.0 0.0 510.0 503.0" fill="none" stroke="none" stroke-linecap="square" stroke-miterlimit="10" xmlns:xlink="http://www.w3.org/1999/xlink" xmlns="http://www.w3.org/2000/svg"><clipPath id="p.0"><path d="m0 0l510.0 0l0 503.0l-510.0 0l0 -503.0z" clip-rule="nonzero"/></clipPath><g clip-path="url(#p.0)"><path fill="#000000" fill-opacity="0.0" d="m0 0l510.0 0l0 503.0l-510.0 0z" fill-rule="evenodd"/><g filter="url(#shadowFilter-p.1)"><use xlink:href="#p.1" transform="matrix(1.0 0.0 0.0 1.0 -4.849465091863515 30.618339107611572)"/></g><defs><filter id="shadowFilter-p.1" filterUnits="userSpaceOnUse"><feGaussianBlur in="SourceAlpha" stdDeviation="8.0" result="blur"/><feComponentTransfer in="blur" color-interpolation-filters="sRGB"><feFuncR type="linear" slope="0" intercept="0.0"/><feFuncG type="linear" slope="0" intercept="0.0"/><feFuncB type="linear" slope="0" intercept="0.0"/><feFuncA type="linear" slope="0.5" intercept="0"/></feComponentTransfer></filter></defs><g id="p.1"><path fill="#000000" fill-opacity="0.0" d="m175.62518 400.45087l0 0c17.946 17.945984 47.04219 17.945984 64.988174 0l185.37404 -185.37402c8.61795 -8.617966 13.459503 -20.306442 13.459503 -32.494095c0 -12.187637 -4.8415527 -23.876114 -13.459503 -32.49408l-129.97244 -129.97246c-17.946014 -17.945988 -47.042206 -17.945988 -64.98819 0l-185.37402 185.37402l0 0c-17.945992 17.946 -17.945992 47.04219 0 64.98819z" fill-rule="evenodd"/><path stroke="#674ea7" stroke-width="4.0" stroke-linejoin="round" stroke-linecap="butt" d="m175.62518 400.45087l0 0c17.946 17.945984 47.04219 17.945984 64.988174 0l185.37404 -185.37402c8.61795 -8.617966 13.459503 -20.306442 13.459503 -32.494095c0 -12.187637 -4.8415527 -23.876114 -13.459503 -32.49408l-129.97244 -129.97246c-17.946014 -17.945988 -47.042206 -17.945988 -64.98819 0l-185.37402 185.37402l0 0c-17.945992 17.946 -17.945992 47.04219 0 64.98819z" fill-rule="evenodd"/></g><g filter="url(#shadowFilter-p.2)"><use xlink:href="#p.2" transform="matrix(1.0 0.0 0.0 1.0 0.0 17.0)"/></g><defs><filter id="shadowFilter-p.2" filterUnits="userSpaceOnUse"><feGaussianBlur in="SourceAlpha" stdDeviation="7.0" result="blur"/><feComponentTransfer in="blur" color-interpolation-filters="sRGB"><feFuncR type="linear" slope="0" intercept="0.0"/><feFuncG type="linear" slope="0" intercept="0.0"/><feFuncB type="linear" slope="0" intercept="0.0"/><feFuncA type="linear" slope="0.5" intercept="0"/></feComponentTransfer></filter></defs><g id="p.2"><path fill="#674ea7" d="m156.71825 297.24915l9.758835 24.393219l-19.67134 0l9.912506 -24.393219zm-0.12567139 -11.490723c-1.5457458 0 -2.6588287 0.80041504 -3.339264 2.4012146l-19.15915 46.03595c-0.53990173 1.2359619 -0.46965027 2.4049072 0.21078491 3.5068665c0.6804199 1.0944824 1.6566925 1.6417542 2.9287872 1.6417542c0.63604736 0 1.2610016 -0.18243408 1.8748627 -0.5472717c0.6138611 -0.36480713 1.0798035 -0.915802 1.3978424 -1.6528931l3.9030304 -9.604797l24.426743 0l3.842514 9.604797c0.27365112 0.69241333 0.7174072 1.2322388 1.3312683 1.6193848c0.6138611 0.3871765 1.2610168 0.58078 1.9414368 0.58078c1.3164673 0 2.303833 -0.5137634 2.9620667 -1.5412598c0.65823364 -1.0274658 0.7359009 -2.1852722 0.23297119 -3.4733582l-19.21463 -46.169952c-0.5916748 -1.6007996 -1.7047577 -2.4012146 -3.339264 -2.4012146z" fill-rule="evenodd"/><path stroke="#000000" stroke-width="1.0" stroke-linejoin="round" stroke-linecap="butt" d="m156.71825 297.24915l9.758835 24.393219l-19.67134 0l9.912506 -24.393219zm-0.12567139 -11.490723c-1.5457458 0 -2.6588287 0.80041504 -3.339264 2.4012146l-19.15915 46.03595c-0.53990173 1.2359619 -0.46965027 2.4049072 0.21078491 3.5068665c0.6804199 1.0944824 1.6566925 1.6417542 2.9287872 1.6417542c0.63604736 0 1.2610016 -0.18243408 1.8748627 -0.5472717c0.6138611 -0.36480713 1.0798035 -0.915802 1.3978424 -1.6528931l3.9030304 -9.604797l24.426743 0l3.842514 9.604797c0.27365112 0.69241333 0.7174072 1.2322388 1.3312683 1.6193848c0.6138611 0.3871765 1.2610168 0.58078 1.9414368 0.58078c1.3164673 0 2.303833 -0.5137634 2.9620667 -1.5412598c0.65823364 -1.0274658 0.7359009 -2.1852722 0.23297119 -3.4733582l-19.21463 -46.169952c-0.5916748 -1.6007996 -1.7047577 -2.4012146 -3.339264 -2.4012146z" fill-rule="evenodd"/></g><g filter="url(#shadowFilter-p.3)"><use xlink:href="#p.3" transform="matrix(1.0 0.0 0.0 1.0 0.0 17.0)"/></g><defs><filter id="shadowFilter-p.3" filterUnits="userSpaceOnUse"><feGaussianBlur in="SourceAlpha" stdDeviation="7.0" result="blur"/><feComponentTransfer in="blur" color-interpolation-filters="sRGB"><feFuncR type="linear" slope="0" intercept="0.0"/><feFuncG type="linear" slope="0" intercept="0.0"/><feFuncB type="linear" slope="0" intercept="0.0"/><feFuncA type="linear" slope="0.5" intercept="0"/></feComponentTransfer></filter></defs><g id="p.3"><path fill="#674ea7" d="m240.73247 207.86931c-3.5426483 0 -6.75618 0.55096436 -9.6405945 1.6529083c-2.8844147 1.0944977 -5.169754 2.6952972 -6.8560333 4.8023987c-1.6788788 2.0996552 -2.5183105 4.6609344 -2.5183105 7.6838226c0 4.117401 1.6123047 7.5721436 4.8369293 10.364243c3.2246246 2.7846375 7.6548004 4.4524384 13.290497 5.003418c4.319214 0.46162415 7.421814 1.6529236 9.30777 3.573883c1.8859711 1.9209442 2.828949 4.091339 2.828949 6.511139c0 1.9209595 -0.5694885 3.5366516 -1.7084656 4.8470764c-1.1315765 1.3029633 -2.6181488 2.2969513 -4.4597473 2.9819489c-1.8415833 0.68499756 -3.8532715 1.0274811 -6.03508 1.0274811c-1.9525146 0 -3.8162994 -0.29782104 -5.591324 -0.89346313c-1.7676239 -0.5956421 -3.2763824 -1.373703 -4.526306 -2.3341827c-1.2499084 -0.96047974 -2.1485138 -2.010315 -2.695816 -3.149475c-0.4067688 -0.8711395 -1.0095367 -1.5226288 -1.8083038 -1.9544678c-0.5558319 -0.30854797 -1.1189728 -0.46281433 -1.6894073 -0.46281433c-0.24171448 0 -0.48472595 0.027694702 -0.72906494 0.08308411c-1.1315765 0.22337341 -1.9377289 0.748291 -2.418457 1.5747375c-0.4807434 0.8264618 -0.49183655 1.7199402 -0.033294678 2.6804047c0.9096985 2.144333 2.3408203 4.0429535 4.29335 5.695862c1.9525146 1.6454773 4.2452545 2.926117 6.8782043 3.841919c2.6403503 0.9083557 5.4138184 1.3625488 8.320419 1.3625488c2.4554596 0 4.829544 -0.3201599 7.122284 -0.96047974c2.2927399 -0.6403198 4.337723 -1.611969 6.1349335 -2.9149475c1.7972107 -1.3029785 3.2283173 -2.9149475 4.2933197 -4.8358917c1.0724182 -1.9209595 1.6086426 -4.1844177 1.6086426 -6.7903595c0 -4.5269165 -1.5124817 -8.175247 -4.5374146 -10.944992c-3.0249329 -2.7697601 -7.240616 -4.4301147 -12.647049 -4.9810944c-3.5426483 -0.3648224 -6.256958 -1.0014191 -8.142914 -1.90979c-1.8859711 -0.915802 -3.180252 -2.0028534 -3.8828583 -3.2611542c-0.70262146 -1.2583008 -1.0539246 -2.5761719 -1.0539246 -3.953598c0 -2.6952972 1.1352692 -4.6944275 3.4058228 -5.997406c2.195282 -1.2597809 4.902191 -1.889679 8.120697 -1.889679c0.11035156 0 0.22129822 7.4768066E-4 0.33285522 0.0022277832c1.9081421 0 3.5648346 0.26431274 4.9700623 0.7929535c1.4126282 0.52119446 2.6403503 1.239685 3.6831665 2.155487c1.0428314 0.91581726 1.9303436 2.0363617 2.6625366 3.361679c0.49552917 0.8711395 1.2425232 1.4667816 2.2409668 1.7869415c0.36967468 0.11766052 0.72935486 0.17649841 1.0790405 0.17649841c0.6017914 0 1.1740112 -0.17424011 1.7166138 -0.52272034c0.7765808 -0.5063019 1.2203369 -1.2024536 1.3312683 -2.0884857c0.110961914 -0.89346313 -0.15161133 -1.8427734 -0.7876587 -2.847931c-1.1315613 -1.8762817 -2.47023 -3.4994202 -4.015991 -4.8694c-1.5457458 -1.3774261 -3.3540497 -2.4533234 -5.4249115 -3.2276611c-2.0634613 -0.78178406 -4.4819336 -1.1726685 -7.2554016 -1.1726685z" fill-rule="evenodd"/><path stroke="#000000" stroke-width="1.0" stroke-linejoin="round" stroke-linecap="butt" d="m240.73247 207.86931c-3.5426483 0 -6.75618 0.55096436 -9.6405945 1.6529083c-2.8844147 1.0944977 -5.169754 2.6952972 -6.8560333 4.8023987c-1.6788788 2.0996552 -2.5183105 4.6609344 -2.5183105 7.6838226c0 4.117401 1.6123047 7.5721436 4.8369293 10.364243c3.2246246 2.7846375 7.6548004 4.4524384 13.290497 5.003418c4.319214 0.46162415 7.421814 1.6529236 9.30777 3.573883c1.8859711 1.9209442 2.828949 4.091339 2.828949 6.511139c0 1.9209595 -0.5694885 3.5366516 -1.7084656 4.8470764c-1.1315765 1.3029633 -2.6181488 2.2969513 -4.4597473 2.9819489c-1.8415833 0.68499756 -3.8532715 1.0274811 -6.03508 1.0274811c-1.9525146 0 -3.8162994 -0.29782104 -5.591324 -0.89346313c-1.7676239 -0.5956421 -3.2763824 -1.373703 -4.526306 -2.3341827c-1.2499084 -0.96047974 -2.1485138 -2.010315 -2.695816 -3.149475c-0.4067688 -0.8711395 -1.0095367 -1.5226288 -1.8083038 -1.9544678c-0.5558319 -0.30854797 -1.1189728 -0.46281433 -1.6894073 -0.46281433c-0.24171448 0 -0.48472595 0.027694702 -0.72906494 0.08308411c-1.1315765 0.22337341 -1.9377289 0.748291 -2.418457 1.5747375c-0.4807434 0.8264618 -0.49183655 1.7199402 -0.033294678 2.6804047c0.9096985 2.144333 2.3408203 4.0429535 4.29335 5.695862c1.9525146 1.6454773 4.2452545 2.926117 6.8782043 3.841919c2.6403503 0.9083557 5.4138184 1.3625488 8.320419 1.3625488c2.4554596 0 4.829544 -0.3201599 7.122284 -0.96047974c2.2927399 -0.6403198 4.337723 -1.611969 6.1349335 -2.9149475c1.7972107 -1.3029785 3.2283173 -2.9149475 4.2933197 -4.8358917c1.0724182 -1.9209595 1.6086426 -4.1844177 1.6086426 -6.7903595c0 -4.5269165 -1.5124817 -8.175247 -4.5374146 -10.944992c-3.0249329 -2.7697601 -7.240616 -4.4301147 -12.647049 -4.9810944c-3.5426483 -0.3648224 -6.256958 -1.0014191 -8.142914 -1.90979c-1.8859711 -0.915802 -3.180252 -2.0028534 -3.8828583 -3.2611542c-0.70262146 -1.2583008 -1.0539246 -2.5761719 -1.0539246 -3.953598c0 -2.6952972 1.1352692 -4.6944275 3.4058228 -5.997406c2.195282 -1.2597809 4.902191 -1.889679 8.120697 -1.889679c0.11035156 0 0.22129822 7.4768066E-4 0.33285522 0.0022277832c1.9081421 0 3.5648346 0.26431274 4.9700623 0.7929535c1.4126282 0.52119446 2.6403503 1.239685 3.6831665 2.155487c1.0428314 0.91581726 1.9303436 2.0363617 2.6625366 3.361679c0.49552917 0.8711395 1.2425232 1.4667816 2.2409668 1.7869415c0.36967468 0.11766052 0.72935486 0.17649841 1.0790405 0.17649841c0.6017914 0 1.1740112 -0.17424011 1.7166138 -0.52272034c0.7765808 -0.5063019 1.2203369 -1.2024536 1.3312683 -2.0884857c0.110961914 -0.89346313 -0.15161133 -1.8427734 -0.7876587 -2.847931c-1.1315613 -1.8762817 -2.47023 -3.4994202 -4.015991 -4.8694c-1.5457458 -1.3774261 -3.3540497 -2.4533234 -5.4249115 -3.2276611c-2.0634613 -0.78178406 -4.4819336 -1.1726685 -7.2554016 -1.1726685z" fill-rule="evenodd"/></g><g filter="url(#shadowFilter-p.4)"><use xlink:href="#p.4" transform="matrix(1.0 0.0 0.0 1.0 0.0 13.0)"/></g><defs><filter id="shadowFilter-p.4" filterUnits="userSpaceOnUse"><feGaussianBlur in="SourceAlpha" stdDeviation="7.0" result="blur"/><feComponentTransfer in="blur" color-interpolation-filters="sRGB"><feFuncR type="linear" slope="0" intercept="0.0"/><feFuncG type="linear" slope="0" intercept="0.0"/><feFuncB type="linear" slope="0" intercept="0.0"/><feFuncA type="linear" slope="0.5" intercept="0"/></feComponentTransfer></filter></defs><g id="p.4"><path fill="#674ea7" d="m322.1765 131.04898c-0.95407104 0 -1.7750244 0.3199005 -2.4628296 0.95970154c-0.6804199 0.6398163 -1.0206299 1.4291382 -1.0206299 2.367981l0 43.39554c0 0.9388428 0.32910156 1.7281647 0.9873352 2.367981c0.6656494 0.639801 1.4976807 0.95970154 2.4961243 0.95970154l28.211548 0c1.0058594 0 1.8489685 -0.3199005 2.5293884 -0.95970154c0.6804199 -0.6398163 1.0206299 -1.4291382 1.0206299 -2.367981c0 -0.9458008 -0.34020996 -1.7386017 -1.0206299 -2.378418c-0.6804199 -0.639801 -1.523529 -0.95970154 -2.5293884 -0.95970154l-24.672638 0l0 -40.05742c0 -0.9388428 -0.34020996 -1.7281647 -1.0206299 -2.367981c-0.6804199 -0.639801 -1.5198364 -0.95970154 -2.51828 -0.95970154z" fill-rule="evenodd"/><path stroke="#000000" stroke-width="1.0" stroke-linejoin="round" stroke-linecap="butt" d="m322.1765 131.04898c-0.95407104 0 -1.7750244 0.3199005 -2.4628296 0.95970154c-0.6804199 0.6398163 -1.0206299 1.4291382 -1.0206299 2.367981l0 43.39554c0 0.9388428 0.32910156 1.7281647 0.9873352 2.367981c0.6656494 0.639801 1.4976807 0.95970154 2.4961243 0.95970154l28.211548 0c1.0058594 0 1.8489685 -0.3199005 2.5293884 -0.95970154c0.6804199 -0.6398163 1.0206299 -1.4291382 1.0206299 -2.367981c0 -0.9458008 -0.34020996 -1.7386017 -1.0206299 -2.378418c-0.6804199 -0.639801 -1.523529 -0.95970154 -2.5293884 -0.95970154l-24.672638 0l0 -40.05742c0 -0.9388428 -0.34020996 -1.7281647 -1.0206299 -2.367981c-0.6804199 -0.639801 -1.5198364 -0.95970154 -2.51828 -0.95970154z" fill-rule="evenodd"/></g><path fill="#000000" fill-opacity="0.0" d="m200.93715 86.2912l123.401566 0.9133835" fill-rule="evenodd"/><path stroke="#674ea7" stroke-width="8.0" stroke-linejoin="round" stroke-linecap="butt" d="m200.93715 86.2912l123.401566 0.9133835" fill-rule="evenodd"/><path fill="#000000" fill-opacity="0.0" d="m202.12875 82.55104l-1.0078735 52.0" fill-rule="evenodd"/><path stroke="#674ea7" stroke-width="8.0" stroke-linejoin="round" stroke-linecap="butt" d="m202.12875 82.55104l-1.0078735 52.0" fill-rule="evenodd"/><path fill="#000000" fill-opacity="0.0" d="m157.12875 135.29907l78.99213 0" fill-rule="evenodd"/><path stroke="#674ea7" stroke-width="8.0" stroke-linejoin="round" stroke-linecap="butt" d="m157.12875 135.29907l78.99213 0" fill-rule="evenodd"/><path fill="#000000" fill-opacity="0.0" d="m157.12875 131.04973l-1.0708618 142.99211" fill-rule="evenodd"/><path stroke="#674ea7" stroke-width="8.0" stroke-linejoin="round" stroke-linecap="butt" d="m157.12875 131.04973l-1.0708618 142.99211" fill-rule="evenodd"/><path fill="#000000" fill-opacity="0.0" d="m235.63007 131.55104l0.37794495 66.4252" fill-rule="evenodd"/><path stroke="#674ea7" stroke-width="8.0" stroke-linejoin="round" stroke-linecap="butt" d="m235.63007 131.55104l0.37794495 66.4252" fill-rule="evenodd"/><path fill="#000000" fill-opacity="0.0" d="m324.63007 83.04973l-0.1574707 38.866142" fill-rule="evenodd"/><path stroke="#674ea7" stroke-width="8.0" stroke-linejoin="round" stroke-linecap="butt" d="m324.63007 83.04973l-0.1574707 38.866142" fill-rule="evenodd"/><path fill="#000000" fill-opacity="0.0" d="m262.63794 49.59828l0 37.6063" fill-rule="evenodd"/><path stroke="#674ea7" stroke-width="4.0" stroke-linejoin="round" stroke-linecap="butt" d="m262.63794 49.59828l0 37.6063" fill-rule="evenodd"/><path fill="#674ea7" d="m262.63794 40.049725l0 0c-6.079468 0 -11.007874 4.9283943 -11.007874 11.007874l0 0c0 2.9194717 1.1597595 5.719368 3.2241364 7.783745c2.0643768 2.0643768 4.864273 3.2241325 7.783737 3.2241325l0 0c6.079468 0 11.007874 -4.9283943 11.007874 -11.007877l0 0c0 -6.079479 -4.928406 -11.007874 -11.007874 -11.007874z" fill-rule="evenodd"/><path stroke="#674ea7" stroke-width="1.0" stroke-linejoin="round" stroke-linecap="butt" d="m262.63794 40.049725l0 0c-6.079468 0 -11.007874 4.9283943 -11.007874 11.007874l0 0c0 2.9194717 1.1597595 5.719368 3.2241364 7.783745c2.0643768 2.0643768 4.864273 3.2241325 7.783737 3.2241325l0 0c6.079468 0 11.007874 -4.9283943 11.007874 -11.007877l0 0c0 -6.079479 -4.928406 -11.007874 -11.007874 -11.007874z" fill-rule="evenodd"/></g></svg>